<?xml version="1.0" encoding="UTF-8"?>
<svg version="1.1" xmlns="http://www.w3.org/2000/svg" width="1024" height="1024">
<path d="M0 0 C1.44934791 -0.00134801 2.89869547 -0.00313267 4.34804237 -0.00531223 C8.33034696 -0.01003213 12.31262864 -0.00854384 16.29493434 -0.00603446 C20.62765221 -0.00439954 24.96036521 -0.00854376 29.29308152 -0.01194364 C36.88674848 -0.01709604 44.48040907 -0.01851512 52.07407761 -0.01748753 C63.36628074 -0.01596317 74.65847682 -0.02012308 85.95067858 -0.02536215 C107.29155356 -0.03503664 128.63242614 -0.03784643 149.97330305 -0.03841921 C166.45228887 -0.03887861 182.93127374 -0.04093622 199.41025925 -0.04411983 C204.15235591 -0.04501737 208.89445257 -0.04590718 213.63654923 -0.04679471 C214.81542001 -0.04701576 215.99429079 -0.04723681 217.20888493 -0.04746456 C250.37136306 -0.05361933 283.53384086 -0.05756506 316.69631958 -0.05712128 C317.94679738 -0.0571057 319.19727517 -0.05709012 320.48564623 -0.05707407 C326.82370597 -0.05699096 333.16176571 -0.05689192 339.49982545 -0.05678936 C340.75860578 -0.05676942 342.01738611 -0.05674947 343.31431131 -0.05672892 C345.85987188 -0.05668848 348.40543245 -0.05664669 350.95099302 -0.05660353 C390.56068689 -0.0559907 430.17037221 -0.06349853 469.78006363 -0.07717609 C514.27257321 -0.09253337 558.76507718 -0.10114254 603.25758958 -0.10021287 C608.00094366 -0.10013824 612.74429774 -0.10008953 617.48765182 -0.10005856 C619.23957728 -0.10004107 619.23957728 -0.10004107 621.02689517 -0.10002324 C639.8297114 -0.09999245 658.63252021 -0.1063808 677.43533424 -0.11499082 C696.32900327 -0.12346358 715.22266143 -0.1244602 734.11633131 -0.1178815 C745.34255728 -0.11418341 756.56875025 -0.11602596 767.79497273 -0.12582384 C775.29433372 -0.13181637 782.79367075 -0.13053646 790.29303064 -0.12335334 C794.56552085 -0.11946573 798.83794709 -0.1187138 803.11043283 -0.12681069 C807.00233163 -0.13412168 810.89411356 -0.13211544 814.78600727 -0.12288683 C816.18024873 -0.12117488 817.57449949 -0.12276303 818.96873145 -0.12818803 C830.61588192 -0.1704481 841.8581946 0.60673961 852.77908707 4.87863445 C853.44682144 5.13958904 854.11455582 5.40054363 854.80252457 5.66940594 C865.96042717 10.11896628 877.45538561 15.19760585 885.71658707 24.12863445 C888.27672144 26.7544133 890.76979605 29.17052238 893.65408707 31.44113445 C908.21886609 43.52285954 917.91488581 67.74648902 920.71658707 86.12863445 C920.86447639 89.51088878 920.85600682 92.89037437 920.85080814 96.2754221 C920.85316037 97.31167044 920.8555126 98.34791878 920.85793611 99.41556859 C920.86462775 102.91066307 920.86416784 106.40572038 920.86375809 109.90082073 C920.86705661 112.42294882 920.87078216 114.94507638 920.87489957 117.46720326 C920.88387621 123.68664391 920.88814744 129.90607344 920.89041853 136.12551968 C920.89338092 143.5741975 920.9020786 151.02286587 920.91083281 158.47153873 C920.93167779 176.4770036 920.94214748 194.48247012 920.95096242 212.48794425 C920.95516924 221.00692556 920.96039122 229.52590617 920.96564695 238.04488689 C920.98353805 267.2092344 920.99853343 296.37358212 921.00596714 325.5379343 C921.0064419 327.36894103 921.00691779 329.19994776 921.0073948 331.03095449 C921.00774937 332.39297169 921.00774937 332.39297169 921.00811109 333.78250438 C921.00931229 338.38290712 921.01052774 342.98330985 921.01175308 347.58371258 C921.01199323 348.49667533 921.01223338 349.40963808 921.01248081 350.35026638 C921.02037187 379.94363282 921.04379925 409.53695916 921.07630903 439.1303081 C921.11062101 470.42135924 921.13031959 501.71238692 921.13361138 533.00345719 C921.13402891 536.43983754 921.13450848 539.87621789 921.13503456 543.31259823 C921.13515775 544.15872563 921.13528094 545.00485302 921.13540787 545.87662065 C921.13773829 559.48337206 921.15338957 573.09007685 921.17387641 586.69681166 C921.19415085 600.37980959 921.19960407 614.06275162 921.19010577 627.7457618 C921.18489696 635.86999384 921.19073886 643.99403954 921.21264044 652.1182447 C921.22777469 658.19240435 921.22188345 664.26635563 921.20796993 670.340526 C921.20559054 672.79217816 921.20993446 675.24384833 921.22179858 677.69547294 C921.2865885 691.97164868 920.90121073 704.56105453 915.13255483 717.8159703 C913.62971885 721.07688721 913.62971885 721.07688721 912.90408707 724.50363445 C911.57402771 728.56381563 909.664011 731.45573446 907.22830582 734.9294157 C905.90734326 736.85112609 904.76195156 738.76771562 903.65408707 740.81613445 C900.42121717 746.34329911 896.21595019 750.62927133 891.71658707 755.12863445 C890.91221207 756.13925945 890.10783707 757.14988445 889.27908707 758.19113445 C886.63816215 761.21853619 884.10695815 763.00965252 880.71658707 765.12863445 C879.99471207 765.74738445 879.27283707 766.36613445 878.52908707 767.00363445 C874.97385207 769.68981201 871.17352853 771.68153938 867.24002457 773.76144695 C864.58622522 775.14956549 864.58622522 775.14956549 861.71658707 777.12863445 C860.44139381 777.63098331 859.14666832 778.08502348 857.84158707 778.50363445 C856.66016129 778.88261883 856.66016129 778.88261883 855.45486832 779.26925945 C854.5512355 779.5528532 853.64760269 779.83644695 852.71658707 780.12863445 C851.63764175 780.4741032 850.55869644 780.81957195 849.44705582 781.17550945 C842.04407047 783.51062254 835.34676872 785.25197302 827.53958189 785.25743562 C825.69789873 785.26234391 825.69789873 785.26234391 823.81900984 785.26735136 C822.46208249 785.26594143 821.10515523 785.26443943 819.74822807 785.26285553 C818.29646264 785.26480932 816.84469774 785.2671985 815.39293367 785.2699835 C811.38991234 785.27638323 807.38691109 785.27654514 803.38388562 785.27570609 C799.03387756 785.2758756 794.68387668 785.2817818 790.3338722 785.28694695 C781.69992126 785.29627596 773.06597544 785.30019551 764.43202009 785.30246592 C754.09260825 785.30542721 743.75320322 785.3141242 733.41379494 785.3228802 C708.42142538 785.34372871 683.42905462 785.35419507 658.43667839 785.36300981 C646.61444047 785.36721577 634.79220305 785.37243783 622.96996556 785.37769434 C582.50467138 785.39558495 542.03937706 785.41058114 501.57407951 785.41801453 C499.03343927 785.41848928 496.49279902 785.41896517 493.95215877 785.41944219 C492.06225687 785.41979675 492.06225687 785.41979675 490.13417513 785.42015848 C483.75067572 785.42135968 477.36717631 785.42257513 470.98367691 785.42380047 C469.71685008 785.42404062 468.45002326 785.42428077 467.14480774 785.4245282 C426.07019066 785.43242133 384.99560246 785.45585324 343.92099799 785.48835641 C300.49932858 785.52265416 257.07767605 785.54236562 213.65599287 785.54565877 C208.88922778 785.54607631 204.12246271 785.54655587 199.35569763 785.54708195 C197.59511742 785.54726673 197.59511742 785.54726673 195.79896994 785.54745526 C176.91009488 785.54978735 158.02125335 785.56544787 139.13239024 785.58592379 C120.14531879 785.60617961 101.15828763 785.61166023 82.17120738 785.60215316 C70.89226578 785.59693727 59.61345827 785.60281994 48.33453597 785.62468783 C40.79610461 785.63819848 33.25776552 785.63711653 25.71933324 785.62428587 C21.42687791 785.61739108 17.1346789 785.61671326 12.84224649 785.63384596 C8.92862929 785.64933888 5.01547255 785.64603561 1.10186837 785.62843568 C-0.95092779 785.62385498 -3.00374016 785.6386982 -5.05647987 785.65459546 C-17.23793579 785.56470062 -28.13286907 782.99720334 -39.28341293 778.12863445 C-40.39716293 777.86050945 -41.51091293 777.59238445 -42.65841293 777.31613445 C-46.74497994 775.97743147 -49.65544874 774.02647712 -53.15060043 771.57394695 C-55.38762626 769.98573554 -55.38762626 769.98573554 -58.47091293 768.56613445 C-63.93722885 765.77223965 -67.98603891 761.42600847 -72.28341293 757.12863445 C-73.29403793 756.32425945 -74.30466293 755.51988445 -75.34591293 754.69113445 C-78.3795086 752.04480632 -80.14125165 749.51463132 -82.28341293 746.12863445 C-83.06716293 745.24175945 -83.85091293 744.35488445 -84.65841293 743.44113445 C-87.72712029 739.86889307 -89.77415153 735.77031254 -91.95138168 731.6169157 C-93.30609163 728.99023861 -93.30609163 728.99023861 -95.28341293 726.12863445 C-95.78576179 724.85344119 -96.23980197 723.55871571 -96.65841293 722.25363445 C-96.91106918 721.46730633 -97.16372543 720.6809782 -97.42403793 719.87082195 C-97.70763168 718.96590008 -97.99122543 718.0609782 -98.28341293 717.12863445 C-98.62888168 716.03808758 -98.97435043 714.9475407 -99.33028793 713.82394695 C-102.02997783 705.19667707 -103.43149297 698.00603653 -103.41763401 688.98464012 C-103.41998624 687.94869137 -103.42233847 686.91274263 -103.42476198 685.8454015 C-103.43145362 682.35131633 -103.43099371 678.85726834 -103.43058395 675.3631773 C-103.43388248 672.84176191 -103.43760803 670.32034704 -103.44172543 667.79893285 C-103.45070209 661.58122217 -103.45497331 655.36352262 -103.4572444 649.14580634 C-103.4602068 641.69915101 -103.46890451 634.25250512 -103.47765868 626.80585475 C-103.49850402 608.80485016 -103.50897355 590.80384393 -103.51778829 572.80283009 C-103.52199521 564.28551183 -103.52721719 555.76819427 -103.53247282 547.2508766 C-103.55036429 518.09096828 -103.56535942 488.93105976 -103.57279301 459.77114677 C-103.57326776 457.94039415 -103.57374365 456.10964152 -103.57422067 454.2788889 C-103.57445704 453.37100466 -103.57469342 452.46312041 -103.57493696 451.52772452 C-103.57613815 446.927979 -103.5773536 442.32823348 -103.57857895 437.72848797 C-103.5788191 436.81565597 -103.57905925 435.90282398 -103.57930668 434.96233041 C-103.58719701 405.37595374 -103.61062269 375.78961719 -103.64313489 346.20325803 C-103.67745101 314.91813731 -103.69714586 283.63304006 -103.70043725 252.34790021 C-103.70085478 248.91178277 -103.70133434 245.47566535 -103.70186043 242.03954792 C-103.70198362 241.19348795 -103.70210681 240.34742797 -103.70223374 239.47572982 C-103.70456369 225.87289521 -103.72021239 212.27010727 -103.74070227 198.66728928 C-103.76098216 184.98651446 -103.76642738 171.30579555 -103.75693164 157.62500849 C-103.75172488 149.50320845 -103.75755499 141.38159487 -103.77946631 133.25982175 C-103.79461096 127.18569595 -103.78870225 121.11177834 -103.77479579 115.0376418 C-103.7724181 112.58731773 -103.77675153 110.1369756 -103.78862444 107.68667915 C-103.88144792 87.25813532 -101.92541636 67.21042277 -89.61544418 50.0387907 C-88.13399176 48.02386986 -88.13399176 48.02386986 -86.84591293 45.12863445 C-83.25904614 38.2418502 -78.3509661 32.87715432 -72.28341293 28.12863445 C-70.98403793 26.79832195 -70.98403793 26.79832195 -69.65841293 25.44113445 C-67.5509129 23.38909495 -65.97479629 22.22512397 -63.28341293 21.12863445 C-63.28341293 20.46863445 -63.28341293 19.80863445 -63.28341293 19.12863445 C-44.32922213 5.02217448 -23.11191505 -0.03718761 0 0 Z M-50.03341293 56.44113445 C-50.82207748 57.21457195 -50.82207748 57.21457195 -51.62667465 58.00363445 C-54.69518323 61.00076227 -54.69518323 61.00076227 -55.28341293 65.12863445 C-55.94341293 65.12863445 -56.60341293 65.12863445 -57.28341293 65.12863445 C-65.35649197 78.31466354 -68.44610611 91.84479582 -68.41204739 107.17349148 C-68.41380042 108.1744133 -68.41555346 109.17533512 -68.41735962 110.20658791 C-68.42202134 113.56943151 -68.41955366 116.93223191 -68.4171257 120.29507732 C-68.41899359 122.72691167 -68.4212942 125.15874571 -68.42399102 127.59057927 C-68.4288379 132.88256503 -68.4305629 138.17453819 -68.42953491 143.46652508 C-68.42800995 151.33609104 -68.43217181 159.20564687 -68.43740954 167.07521087 C-68.44708201 181.94836205 -68.44989374 196.82150978 -68.4504666 211.69466373 C-68.45092609 223.18038823 -68.45298417 234.66611138 -68.45616722 246.15183544 C-68.45706476 249.45766489 -68.45795458 252.76349433 -68.4588421 256.06932378 C-68.45906315 256.89115719 -68.45928419 257.7129906 -68.45951194 258.55972805 C-68.46566643 281.67747288 -68.46961248 304.79521723 -68.46916866 327.91296291 C-68.46915308 328.78461095 -68.46913751 329.65625899 -68.46912145 330.55432061 C-68.46903835 334.97222131 -68.46893931 339.39012201 -68.46883675 343.80802271 C-68.4688168 344.68543756 -68.46879686 345.56285241 -68.46877631 346.4668556 C-68.46873587 348.24120246 -68.46869407 350.01554932 -68.46865092 351.78989618 C-68.46803816 379.39597827 -68.47554469 407.00204807 -68.48922348 434.60812664 C-68.50458435 465.62172237 -68.5131897 496.63531003 -68.51226026 527.64890981 C-68.51218563 530.95599667 -68.51213692 534.26308354 -68.51210594 537.5701704 C-68.51209429 538.38446203 -68.51208263 539.19875366 -68.51207063 540.03772079 C-68.51203985 553.14116624 -68.51842543 566.24460102 -68.52703821 579.3480433 C-68.53551544 592.51766316 -68.53650408 605.68726742 -68.52992889 618.8568885 C-68.52623372 626.67975551 -68.5280646 634.50257512 -68.53787123 642.32543711 C-68.54457633 648.16805572 -68.54081693 654.01063727 -68.532998 659.85325554 C-68.53145815 662.2159454 -68.53329738 664.57864039 -68.53885808 666.9413242 C-68.54591943 670.15443766 -68.54062333 673.36730762 -68.5323019 676.58041286 C-68.53727008 677.49607859 -68.54223826 678.41174432 -68.54735699 679.35515749 C-68.44025631 698.93754536 -61.95670438 715.56387947 -48.59981918 729.84738445 C-45.06686067 733.32672302 -41.3460074 736.29459089 -37.28341293 739.12863445 C-36.59505356 739.65199383 -35.90669418 740.1753532 -35.19747543 740.71457195 C-18.13065095 752.5116401 4.34043228 750.85650163 24.10730404 750.77097222 C28.36408857 750.75816325 32.62078429 750.77463735 36.87755585 750.78718889 C44.32105317 750.80516355 51.76436884 750.80475151 59.2078743 750.79195309 C70.2769406 750.77297294 81.3458548 750.78274434 92.41492021 750.79799462 C112.18881464 750.82427541 131.96262812 750.82206051 151.73653018 750.80760006 C169.04129251 750.79500784 186.3460252 750.7917455 203.65079117 750.79771328 C205.37453602 750.79828617 205.37453602 750.79828617 207.133104 750.79887063 C211.79827307 750.8004274 216.46344212 750.8020194 221.12861116 750.80366945 C264.86550705 750.81895446 308.60235148 750.80511299 352.33923942 750.77818496 C391.17208079 750.75445804 430.00484016 750.75658123 468.83768082 750.78048992 C512.49606839 750.80727996 556.15441052 750.81787033 599.81280518 750.8024286 C604.4693311 750.80082509 609.12585703 750.79926088 613.78238297 750.79771328 C614.9288857 750.79731789 616.07538843 750.79692251 617.25663367 750.79651514 C634.54786272 750.79083474 651.83905886 750.79746615 669.13028336 750.81011105 C688.79692049 750.8244216 708.46346423 750.8208028 728.13008976 750.79370733 C739.12833519 750.77905326 750.12637824 750.77802774 761.12461831 750.7969382 C768.48057402 750.80818813 775.8363682 750.80110409 783.19230007 750.77941435 C787.37703292 750.76757528 791.56136512 750.76333738 795.74608469 750.78144427 C822.54451236 750.88852674 845.5379045 749.42961855 866.09158707 730.50363445 C880.39480008 715.08902313 885.88807075 697.80229315 885.84801483 676.99031353 C885.85006747 675.99142422 885.8521201 674.99253491 885.85423493 673.96337622 C885.85989314 670.61342056 885.85844913 667.26350616 885.85702896 663.91354656 C885.85961327 661.48853731 885.86262662 659.06352848 885.86603236 656.63852024 C885.87325224 650.6709081 885.87580461 644.70330977 885.87636142 638.73569462 C885.87727663 631.58596335 885.88394884 624.43624032 885.89070824 617.28651261 C885.90675449 600.00733829 885.91266997 582.72816487 885.91745699 565.44898445 C885.91979433 557.27179166 885.92339713 549.09459957 885.92715237 540.91740733 C885.9399867 512.91573468 885.95070595 484.91406242 885.95415497 456.91238689 C885.9543766 455.15519794 885.95459838 453.39800898 885.95482032 451.64082003 C885.95504096 449.87943395 885.95526144 448.11804787 885.95548177 446.3566618 C885.95592432 442.82313315 885.95637143 439.2896045 885.95682144 435.75607586 C885.95693083 434.87996875 885.95704022 434.00386164 885.95715293 433.10120583 C885.96078286 404.69892917 885.97670112 376.29667804 886.00001181 347.89441116 C886.02462293 317.8526388 886.0383284 287.81088102 886.03952289 257.76909828 C886.03969433 254.46952025 886.03990976 251.16994222 886.04015732 247.87036419 C886.04024097 246.6517269 886.04024097 246.6517269 886.04032631 245.40847067 C886.04147564 232.34976271 886.05248755 219.29108102 886.06704437 206.23238192 C886.08143015 193.09975996 886.08463462 179.96717156 886.0766044 166.83454388 C886.07215795 159.03936103 886.07596917 151.24428675 886.0918429 143.44911823 C886.10278319 137.61827026 886.09792101 131.78750314 886.08707103 125.95665276 C886.0851157 123.6053427 886.08818482 121.25402167 886.09691539 118.90272701 C886.16426639 99.53037982 885.0306209 82.0731186 874.71658707 65.12863445 C874.05658707 65.12863445 873.39658707 65.12863445 872.71658707 65.12863445 C872.66244644 64.58851727 872.60830582 64.04840008 872.55252457 63.4919157 C871.32774819 60.02934698 868.91157999 57.83607806 866.34158707 55.31613445 C865.80356461 54.78568523 865.26554214 54.25523602 864.71121597 53.70871258 C849.75295632 39.35088702 831.4466935 34.64135077 811.12839127 34.75111103 C809.69484361 34.74797444 808.26129835 34.74352538 806.82775831 34.73789793 C802.9079116 34.72627998 798.98828833 34.73317148 795.0684455 34.74323179 C790.7965434 34.75087066 786.52467445 34.74105079 782.2527771 34.73350179 C774.77209058 34.72268368 767.29146906 34.72298498 759.81077957 34.73064327 C748.68665329 34.7420005 737.56258174 34.73618442 726.43845582 34.72701835 C706.56967601 34.71122609 686.70092515 34.71258833 666.83214259 34.72125509 C649.44462196 34.72880227 632.05711193 34.73077162 614.66959 34.72718716 C613.51615702 34.726958 612.36272404 34.72672885 611.17433855 34.72649275 C606.49215771 34.72555873 601.80997687 34.72460353 597.12779604 34.72361346 C553.20691135 34.71443681 509.28604511 34.72275628 465.36516327 34.73890415 C426.34557591 34.75314092 387.32601792 34.75186703 348.30643082 34.73752117 C304.46578521 34.72145668 260.62515589 34.71508762 216.78450775 34.72435796 C212.11086655 34.72532011 207.43722534 34.72625863 202.76358414 34.72718716 C201.03743439 34.727543 201.03743439 34.727543 199.27641293 34.72790604 C181.89998051 34.73131821 164.52355986 34.72732809 147.14712906 34.7197485 C127.389016 34.71117298 107.63093642 34.71331043 87.87282753 34.72959073 C76.81542411 34.73840131 65.75809317 34.73897212 54.70069163 34.72765221 C47.31399933 34.72092422 39.92736513 34.72511328 32.54068144 34.73816651 C28.33259421 34.74530012 24.12465096 34.74774865 19.91656828 34.73694856 C16.083125 34.72721044 12.24995255 34.7314422 8.41652876 34.74649055 C6.39932084 34.75090418 4.38209678 34.74072461 2.36491346 34.7298277 C-18.30570726 34.85693898 -35.33338087 41.9472801 -50.03341293 56.44113445 Z " fill="#111219" transform="translate(103.28341293334961,238.87136554718018)"/>
<path d="M0 0 C2.03489764 0.01587196 4.06980017 0.03084882 6.10470581 0.0456543 C39.66124092 0.30049793 73.10321469 1.49762968 106.60209656 3.47123718 C113.10937191 3.85300446 119.61627353 4.19425759 126.12838745 4.48120117 C147.8981287 5.46418886 169.44106385 7.73057151 191.06539917 10.40356445 C194.89246344 10.87466166 198.72176264 11.31387742 202.55488586 11.73245239 C231.96824631 14.95748943 262.24503107 21.49764129 286.09713745 40.01635742 C287.29901853 40.79721295 288.50657346 41.56947763 289.72213745 42.32885742 C290.50588745 42.88573242 291.28963745 43.44260742 292.09713745 44.01635742 C292.09713745 44.67635742 292.09713745 45.33635742 292.09713745 46.01635742 C292.83963745 46.24323242 293.58213745 46.47010742 294.34713745 46.70385742 C297.66869845 48.2891479 298.86900796 50.11303717 301.09713745 53.01635742 C302.1418315 53.89221203 303.20522392 54.74616698 304.28463745 55.57885742 C307.84911634 58.66807246 307.84911634 58.66807246 308.09713745 62.01635742 C308.75713745 62.01635742 309.41713745 62.01635742 310.09713745 62.01635742 C312.71571806 65.13930843 314.87207456 68.60640332 317.09713745 72.01635742 C317.6694812 72.88518555 318.24182495 73.75401367 318.83151245 74.64916992 C343.6120004 114.54802896 346.35797593 173.14899111 348.81588745 219.11791992 C348.87846237 220.25893661 348.94103729 221.39995331 349.00550842 222.57554626 C349.73902213 236.053925 350.43041996 249.53452249 351.09713745 263.01635742 C351.13901184 263.85350281 351.18088623 264.69064819 351.22402954 265.55316162 C353.45187566 310.48076754 352.72449501 355.80465577 350.36618042 400.70532227 C350.10243842 405.78290403 349.89467652 410.86171441 349.6947937 415.94213867 C348.79609312 437.83936146 346.55936899 459.4508152 343.72311401 481.17797852 C343.22930927 484.96666579 342.75969152 488.75761556 342.30412292 492.55107117 C339.54958466 515.47105022 336.14430359 539.39498063 325.09713745 560.01635742 C324.41651245 561.65604492 324.41651245 561.65604492 323.72213745 563.32885742 C316.19306043 580.85748987 302.31569666 600.39663268 286.09713745 611.01635742 C285.43713745 611.01635742 284.77713745 611.01635742 284.09713745 611.01635742 C284.09713745 611.67635742 284.09713745 612.33635742 284.09713745 613.01635742 C278.60519369 617.16171882 272.1019546 620.10887264 265.97213745 623.20385742 C264.98793823 623.70296631 264.98793823 623.70296631 263.9838562 624.2121582 C254.82675327 628.76100849 245.62530644 631.27333371 235.65963745 633.45385742 C234.96351349 633.60698395 234.26738953 633.76011047 233.5501709 633.9178772 C218.93659749 637.0972964 204.28526109 638.98170878 189.42526245 640.55151367 C184.83294262 641.03923086 180.24631704 641.5722486 175.65963745 642.11010742 C163.26625811 643.55768386 163.26625811 643.55768386 157.7651062 644.18432617 C155.97496094 644.38964966 155.97496094 644.38964966 154.14865112 644.59912109 C143.97633845 645.68312623 133.7952322 646.27912327 123.5776062 646.73510742 C122.18927897 646.79840506 120.80095819 646.86184442 119.41264343 646.92541504 C116.50732707 647.05793709 113.60194461 647.18886424 110.69650269 647.31860352 C107.07668422 647.48034795 103.457049 647.64582225 99.83745861 647.81258392 C96.96340267 647.94456495 94.08925547 648.07447502 91.21508217 648.20387268 C89.26476505 648.2919761 87.31451647 648.38159312 85.36427307 648.47131348 C60.57895225 649.57011484 35.82081272 650.18631626 11.01119995 650.25463867 C9.62715426 650.25939367 8.24310898 650.26426785 6.8590641 650.26925468 C-2.7538352 650.30312783 -12.36670419 650.32007709 -21.9796586 650.32713509 C-24.28697018 650.32886425 -26.59428107 650.33104556 -28.90159225 650.33323669 C-68.45222964 650.36643239 -107.94982489 650.12963725 -147.46536255 648.26635742 C-148.33013969 648.22673008 -149.19491684 648.18710274 -150.08589935 648.14627457 C-181.55703028 646.70198436 -213.08622094 644.2862442 -244.26223755 639.65698242 C-248.21393829 639.08393613 -252.16324899 638.69968874 -256.14041138 638.35351562 C-267.05997906 637.38316034 -277.37121257 635.01613788 -287.90286255 632.01635742 C-288.66357056 631.80043945 -289.42427856 631.58452148 -290.20803833 631.36206055 C-297.78574363 629.17851332 -304.95302823 626.80717614 -311.90286255 623.01635742 C-312.99985474 622.55745117 -314.09684692 622.09854492 -315.2270813 621.62573242 C-328.56356256 615.97423343 -339.64070185 606.39529222 -349.84036255 596.32885742 C-350.38434692 595.79429932 -350.9283313 595.25974121 -351.48880005 594.70898438 C-359.90286255 586.22541668 -359.90286255 586.22541668 -359.90286255 582.01635742 C-360.56286255 582.01635742 -361.22286255 582.01635742 -361.90286255 582.01635742 C-370.21939972 567.80263935 -377.48137092 553.93604624 -381.90286255 538.01635742 C-382.08977661 537.35394043 -382.27669067 536.69152344 -382.4692688 536.0090332 C-385.54552341 525.05659875 -387.88459783 514.18983043 -389.21536255 502.89135742 C-390.02224771 496.12564679 -390.84413709 489.36490324 -391.786026 482.61659241 C-395.70485611 454.49270035 -397.58768672 426.37222585 -398.90286255 398.01635742 C-398.94204489 397.21524977 -398.98122723 396.41414211 -399.02159691 395.58875847 C-399.70249251 381.62639811 -400.08635238 367.69393923 -400.1411438 353.71557617 C-400.14598785 352.74789999 -400.15083191 351.78022381 -400.15582275 350.78322411 C-400.1920097 343.42343974 -400.20814114 336.06372271 -400.21536255 328.70385742 C-400.21666042 327.61728096 -400.2179583 326.5307045 -400.2192955 325.41120148 C-400.27172933 267.34564842 -399.10604269 208.93431531 -389.31399536 151.56420898 C-388.77871997 148.2470273 -388.42944432 144.92123483 -388.09036255 141.57885742 C-386.94582297 131.53400033 -384.43230788 121.78786769 -381.90286255 112.01635742 C-381.680177 111.12352051 -381.45749146 110.23068359 -381.22805786 109.31079102 C-379.52245227 102.70010708 -377.24749622 96.52335245 -374.52786255 90.26635742 C-374.15403442 89.37303711 -373.7802063 88.4797168 -373.39505005 87.55932617 C-371.07508163 82.1646051 -368.4493377 77.69179383 -364.90286255 73.01635742 C-364.17595987 71.79808024 -363.46741794 70.56865586 -362.77786255 69.32885742 C-361.28539532 66.69216532 -359.90109806 64.2870796 -357.90286255 62.01635742 C-357.24286255 62.01635742 -356.58286255 62.01635742 -355.90286255 62.01635742 C-355.67598755 61.27385742 -355.44911255 60.53135742 -355.21536255 59.76635742 C-353.62369569 56.43143638 -351.81662218 55.26789896 -348.90286255 53.01635742 C-347.97918399 51.93947174 -347.07703742 50.843909 -346.19192505 49.73510742 C-343.02485731 45.98540038 -339.52651081 43.20627563 -335.52786255 40.39135742 C-334.86592896 39.91698242 -334.20399536 39.44260742 -333.52200317 38.95385742 C-326.88854346 34.23151246 -320.49145431 30.04822898 -312.90286255 27.01635742 C-312.05779144 26.64813873 -311.21272034 26.27992004 -310.34204102 25.90054321 C-289.17524054 16.75424131 -266.55343194 13.55772826 -243.83267212 10.88549805 C-240.35829071 10.47269208 -236.88661354 10.0382411 -233.4145813 9.60620117 C-226.24685452 8.71842771 -219.07650933 7.85495952 -211.90286255 7.01635742 C-211.06019836 6.91578537 -210.21753418 6.81521332 -209.34933472 6.71159363 C-204.52942186 6.15059065 -199.71915162 5.78135714 -194.87161255 5.55151367 C-194.13216904 5.51400497 -193.39272552 5.47649628 -192.63087463 5.43785095 C-190.22164779 5.3158622 -187.81226384 5.19734624 -185.40286255 5.07885742 C-181.93530771 4.90514673 -178.467878 4.72908499 -175.0005188 4.55151367 C-174.13205826 4.50709137 -173.26359772 4.46266907 -172.36882019 4.41690063 C-166.09280783 4.09072112 -159.82521093 3.69029679 -153.5552063 3.26367188 C-102.43049919 -0.13993803 -51.21248695 -0.40223236 0 0 Z M-118.0786438 37.44213867 C-119.59725415 37.46925997 -119.59725415 37.46925997 -121.1465435 37.49692917 C-151.15817526 38.05114878 -181.04147486 40.37109516 -210.87063599 43.65820312 C-212.36571754 43.8221839 -213.86083404 43.98584653 -215.35598755 44.14916992 C-216.07703171 44.22810486 -216.79807587 44.30703979 -217.54096985 44.3883667 C-222.39384427 44.9024755 -227.23727343 45.23359658 -232.1098938 45.48901367 C-239.6344479 45.92217516 -246.92976801 46.98322155 -254.34036255 48.32885742 C-255.59518433 48.55250977 -256.8500061 48.77616211 -258.14285278 49.0065918 C-271.92628957 51.50410038 -285.15837128 53.9737107 -297.90286255 60.01635742 C-299.2795813 60.65444336 -299.2795813 60.65444336 -300.68411255 61.30541992 C-305.20677848 63.47363918 -309.14324451 65.65248865 -312.90286255 69.01635742 C-313.52934692 69.55389648 -314.1558313 70.09143555 -314.80130005 70.64526367 C-325.39802184 79.7647473 -333.40384268 89.59858732 -339.90286255 102.01635742 C-340.48036255 103.09916992 -341.05786255 104.18198242 -341.65286255 105.29760742 C-348.8496724 120.05016525 -350.77683275 137.03785274 -353.56277466 153.06591797 C-353.86838496 154.81862488 -354.18199196 156.56993297 -354.49661255 158.32104492 C-355.78110134 165.65132307 -356.59390327 172.98279414 -357.27786255 180.39135742 C-357.40016235 181.68775146 -357.52246216 182.98414551 -357.64846802 184.31982422 C-358.07639892 188.88445398 -358.49062278 193.45028719 -358.90286255 198.01635742 C-358.98512085 198.92569031 -359.06737915 199.83502319 -359.15213013 200.77191162 C-359.69488774 206.78204924 -360.23109763 212.79273824 -360.76107788 218.80401611 C-360.93638503 220.79167271 -361.11242874 222.77926451 -361.28927612 224.76678467 C-361.54118553 227.60622282 -361.78896354 230.44599465 -362.03567505 233.28588867 C-362.14489288 234.50833534 -362.14489288 234.50833534 -362.25631714 235.75547791 C-362.492564 238.50790245 -362.7025746 241.26107036 -362.90286255 244.01635742 C-362.99168701 245.23161606 -363.08051147 246.44687469 -363.17202759 247.69895935 C-364.12235732 261.87560207 -364.08550691 276.0597912 -364.10598755 290.26245117 C-364.1087355 291.61799707 -364.11159278 292.97354276 -364.11455536 294.32908821 C-364.1281807 300.72406618 -364.13786482 307.1190318 -364.14175725 313.51402324 C-364.14575354 320.03399129 -364.15790033 326.55381185 -364.18411255 333.07373047 C-364.35722977 377.10619762 -362.61661373 420.47285509 -357.54708004 464.23730278 C-357.03165633 468.73673172 -356.61954976 473.23366138 -356.26931763 477.74829102 C-355.47719328 487.51098049 -353.81123063 497.13921207 -352.10394287 506.77639771 C-351.80865267 508.44731152 -351.51808136 510.11906782 -351.23278809 511.79171753 C-349.32491028 522.88540354 -346.47712607 532.71477014 -341.90286255 543.01635742 C-341.21304054 544.68206437 -340.52493753 546.34848718 -339.84036255 548.01635742 C-338.29562043 551.43914701 -336.39101413 554.33893133 -334.1255188 557.32495117 C-332.8726609 559.05813798 -331.85791421 560.82437965 -330.84036255 562.70385742 C-329.05875295 565.74983513 -327.48555438 567.66845576 -324.90286255 570.01635742 C-324.16036255 570.77948242 -323.41786255 571.54260742 -322.65286255 572.32885742 C-317.08999368 577.76529746 -311.76420773 582.33156094 -304.90286255 586.01635742 C-304.03661255 586.65573242 -303.17036255 587.29510742 -302.27786255 587.95385742 C-297.13528711 591.09654241 -291.548322 592.95582932 -285.90286255 595.01635742 C-284.78782349 595.4984668 -283.67278442 595.98057617 -282.5239563 596.47729492 C-276.45125152 598.75310642 -269.9671881 599.61695172 -263.59695435 600.69628906 C-261.36864016 601.07406341 -259.14253182 601.46307787 -256.91653442 601.85424805 C-243.5705735 604.17768793 -230.24281914 606.06811844 -216.71536255 606.95385742 C-209.14328826 607.47814346 -201.5762938 608.02736525 -194.0161438 608.70385742 C-184.65003146 609.54092377 -175.27820723 610.29062699 -165.90286255 611.01635742 C-165.05190821 611.08309536 -164.20095387 611.1498333 -163.32421303 611.2185936 C-120.17864295 614.57155501 -77.05378425 614.48206736 -33.8079797 614.40206414 C-26.98393063 614.39075671 -20.16001229 614.394832 -13.33596802 614.4074707 C42.51829252 614.50822967 97.80943964 613.23845285 153.4526062 607.91870117 C160.21840152 607.27294357 166.98266046 606.70665682 173.76290894 606.22998047 C187.3405071 605.27010341 200.68810018 603.32922757 214.09713745 601.01635742 C215.04057007 600.8590918 215.98400269 600.70182617 216.95602417 600.53979492 C228.15022769 598.65041031 237.8571165 595.94576417 248.09713745 591.01635742 C249.32907808 590.48206318 250.5635105 589.95348079 251.80026245 589.43041992 C254.77304775 588.15536272 257.44414732 586.86541115 260.09713745 585.01635742 C260.09713745 584.35635742 260.09713745 583.69635742 260.09713745 583.01635742 C260.98401245 582.81010742 261.87088745 582.60385742 262.78463745 582.39135742 C266.88499749 580.68932118 268.39101444 578.4857459 271.09713745 575.01635742 C271.98401245 574.33573242 272.87088745 573.65510742 273.78463745 572.95385742 C276.38292906 570.7769104 276.92180252 569.12259975 278.09713745 566.01635742 C279.08713745 565.68635742 280.07713745 565.35635742 281.09713745 565.01635742 C282.69661743 562.70697933 284.13350386 560.44138515 285.53463745 558.01635742 C285.93787231 557.32864258 286.34110718 556.64092773 286.75656128 555.93237305 C289.08890896 551.90450589 291.3356088 547.88966979 293.06661987 543.56079102 C293.83855617 541.65481612 294.64656887 539.76338458 295.47238159 537.88012695 C299.47151999 528.48498235 301.70832511 519.44305019 303.34713745 509.39135742 C303.59044679 507.97964281 303.83523653 506.56818253 304.08151245 505.15698242 C304.7811812 501.11436702 305.44337076 497.06665831 306.09713745 493.01635742 C306.29001343 491.83541504 306.4828894 490.65447266 306.68161011 489.43774414 C307.69226486 483.09498238 308.4806934 476.79392056 308.97213745 470.39135742 C309.5979494 462.67610381 310.28708031 454.96985901 311.04244995 447.26635742 C311.30633462 444.54334888 311.56970673 441.82029108 311.83303833 439.097229 C312.00301405 437.35571447 312.17546399 435.61443874 312.35098267 433.87347412 C315.74558525 400.13250253 316.4507546 366.42777227 316.41281128 332.53808594 C316.40820175 328.08843822 316.41504368 323.63906535 316.43331909 319.18945312 C316.53259345 294.75147409 316.20352151 270.41398599 314.70651245 246.01635742 C314.61296447 244.48925361 314.61296447 244.48925361 314.51752663 242.93129921 C313.42615858 225.52664786 311.74783793 208.20090977 309.75045204 190.87884235 C309.19790182 186.04577272 308.75243655 181.21233828 308.36129761 176.36401367 C307.33670159 163.80092839 305.01823902 151.49239297 302.6713562 139.11791992 C302.18366025 136.48369825 301.73391033 133.84980442 301.31588745 131.20385742 C299.80040774 121.80323383 296.92394581 113.69643576 293.09713745 105.01635742 C292.60987183 103.84459961 292.1226062 102.6728418 291.62057495 101.46557617 C288.28876699 93.92202123 284.38566148 86.47744408 278.09713745 81.01635742 C277.35463745 80.23260742 276.61213745 79.44885742 275.84713745 78.64135742 C272.14780294 75.11017448 268.22086909 72.03609791 264.09713745 69.01635742 C263.33014526 68.44788086 262.56315308 67.8794043 261.7729187 67.29370117 C237.48605695 50.55597384 205.06975998 47.04412099 176.40963745 44.64135742 C174.97423756 44.51800566 173.53885401 44.39446379 172.10348511 44.27075195 C158.39697605 43.09778155 144.6843322 41.99544605 130.97213745 40.89135742 C129.90363556 40.80509094 128.83513367 40.71882446 127.73425293 40.62994385 C124.62357692 40.37944409 121.51273435 40.13112785 118.40182495 39.88354492 C117.49855972 39.81073303 116.59529449 39.73792114 115.66465759 39.66290283 C112.80947691 39.43726418 109.9536815 39.22403701 107.09713745 39.01635742 C105.94417679 38.93161163 104.79121613 38.84686584 103.60331726 38.759552 C92.13754357 37.9757659 80.67595826 37.68088525 69.1869812 37.46166992 C68.12677198 37.44073399 67.06656277 37.41979805 65.974226 37.39822769 C37.99621758 36.85883531 10.01627724 36.86404144 -17.96563399 36.88778806 C-22.92136097 36.89155843 -27.87706794 36.89019483 -32.83279419 36.88598633 C-61.25084966 36.86255521 -89.66445184 36.90529083 -118.0786438 37.44213867 Z " fill="#111219" transform="translate(467.9028625488281,305.983642578125)"/>
<path d="M0 0 C2.77199504 1.10603441 4.49361773 2.75258315 6.68149853 4.77848434 C7.56351122 5.59487129 8.44552391 6.41125824 9.35426426 7.25238419 C13.60499687 11.29809758 17.77748744 15.41464052 21.91814709 19.57273483 C22.84791866 20.50236038 23.77769024 21.43198593 24.73563671 22.38978195 C27.25407141 24.90793299 29.76943808 27.42912761 32.2842133 29.9509325 C34.93056819 32.6036024 37.57981646 35.25337967 40.22873974 37.90348434 C45.23582398 42.91366149 50.24035789 47.9263779 55.24394912 52.94004321 C60.92584364 58.63313002 66.61058831 64.32336722 72.29557574 70.01336527 C82.0147365 79.74118807 91.73178056 89.47112044 101.44643688 99.20344162 C102.99495514 100.75475657 104.54382708 102.3057186 106.09315968 103.85622025 C107.2785326 105.04465422 108.46175685 106.23524387 109.64094639 107.42981339 C111.54338441 109.35428987 113.40531833 111.09342609 115.54973888 112.75535202 C118.47294513 115.16699718 120.65568925 117.88514122 123.04973888 120.81785202 C125.64259313 123.53417551 127.9232867 125.73355056 131.04973888 127.81785202 C131.57438732 127.40535202 132.09903576 126.99285202 132.63958263 126.56785202 C152.33430281 111.88692916 178.62420577 103.53516813 203.04973888 102.81785202 C204.05005138 102.78755905 205.05036388 102.75726608 206.08098888 102.72605515 C213.74496408 102.53721922 221.38720305 102.5962698 229.04973888 102.81785202 C229.89504162 102.83767136 230.74034435 102.85749069 231.61126232 102.87791061 C256.11908504 103.68186552 282.00448345 113.91344468 302.04973888 127.81785202 C303.13255138 126.45660202 303.13255138 126.45660202 304.23723888 125.06785202 C306.58945101 122.23857151 309.13651288 120.07560217 312.04973888 117.81785202 C314.94551082 115.07058121 317.54013562 112.22403175 320.04973888 109.13035202 C322.50899615 106.18304627 324.471452 105.20940803 328.04973888 103.81785202 C328.72415019 102.15430412 329.38977098 100.4871826 330.04973888 98.81785202 C331.49620485 97.53210449 332.94927578 96.24999274 334.47552013 95.06003952 C338.07758133 92.21771828 341.06159102 88.82862945 343.98723888 85.31785202 C346.75031945 82.04466427 349.72117801 79.5090289 353.04973888 76.81785202 C355.54824664 74.43832082 357.82095633 72.11526934 359.92473888 69.38035202 C362.13875147 66.71051331 364.49369327 64.62928603 367.17083263 62.44285202 C369.58877835 60.35165573 371.79607352 58.08545748 374.04973888 55.81785202 C374.92023373 54.94513657 375.79072857 54.07242111 376.68760204 53.17325974 C377.63931064 52.21855042 378.59099502 51.26381695 379.54265881 50.30906296 C384.85260916 44.98284178 390.16504859 39.65911074 395.47894859 34.33683014 C398.68802868 31.12250728 401.89615643 27.90724511 405.10222912 24.68992233 C408.21159096 21.56972392 411.32336414 18.45194947 414.43684864 15.33586502 C415.62229239 14.1485714 416.80685461 12.96039694 417.99052525 11.7713356 C419.63971339 10.11492492 421.29196729 8.46163309 422.94500256 6.80906296 C423.43489666 6.31557358 423.92479076 5.8220842 424.42953014 5.31364059 C429.21484296 0.54294964 432.50508747 0.3811957 439.2264967 0.29001999 C443.67896433 0.40224013 446.40217725 1.05428838 449.79973888 3.94285202 C454.51229639 9.06519713 456.63661968 13.59309883 456.41302013 20.57175827 C455.80984419 24.30107192 454.16724209 26.70387672 452.04973888 29.81785202 C451.38973888 30.80785202 450.72973888 31.79785202 450.04973888 32.81785202 C449.38973888 32.81785202 448.72973888 32.81785202 448.04973888 32.81785202 C447.67848888 33.68410202 447.67848888 33.68410202 447.29973888 34.56785202 C445.866739 37.14725181 444.26549212 38.87906794 442.04973888 40.81785202 C441.38973888 40.81785202 440.72973888 40.81785202 440.04973888 40.81785202 C439.67848888 41.68410202 439.67848888 41.68410202 439.29973888 42.56785202 C437.866739 45.14725181 436.26549212 46.87906794 434.04973888 48.81785202 C433.38973888 48.81785202 432.72973888 48.81785202 432.04973888 48.81785202 C431.67848888 49.68410202 431.67848888 49.68410202 431.29973888 50.56785202 C429.866739 53.14725181 428.26549212 54.87906794 426.04973888 56.81785202 C425.38973888 56.81785202 424.72973888 56.81785202 424.04973888 56.81785202 C423.84348888 57.37472702 423.63723888 57.93160202 423.42473888 58.50535202 C421.87923372 61.10461071 419.97937005 62.60563173 417.62786388 64.46628952 C415.10292529 66.62873693 413.14111708 69.24384808 411.04973888 71.81785202 C408.42902487 74.57296162 405.74132785 77.10434146 402.79973888 79.50535202 C400.03231694 81.52208422 400.03231694 81.52208422 399.04973888 83.81785202 C398.38973888 83.81785202 397.72973888 83.81785202 397.04973888 83.81785202 C396.70942638 84.65316452 396.70942638 84.65316452 396.36223888 85.50535202 C394.05843816 89.56442948 390.64127259 92.33723089 387.04973888 95.25535202 C383.97070007 97.88536434 381.59895487 100.68035542 379.04973888 103.81785202 C376.49361253 106.50506178 373.92975779 108.91533666 371.04973888 111.25535202 C367.97070007 113.88536434 365.59895487 116.68035542 363.04973888 119.81785202 C360.49361253 122.50506178 357.92975779 124.91533666 355.04973888 127.25535202 C351.97739046 129.87964963 349.62461017 132.71480201 347.04973888 135.81785202 C345.40333924 137.17613173 343.73678081 138.51039453 342.04973888 139.81785202 C339.29420061 142.43561338 336.76155123 145.12675947 334.36223888 148.06785202 C332.04973888 150.81785202 332.04973888 150.81785202 330.04973888 151.81785202 C330.91598888 152.80785202 331.78223888 153.79785202 332.67473888 154.81785202 C342.04973888 165.77767345 342.04973888 165.77767345 342.04973888 168.81785202 C342.70973888 168.81785202 343.36973888 168.81785202 344.04973888 168.81785202 C347.04973888 174.56785202 347.04973888 174.56785202 347.04973888 176.81785202 C347.70973888 176.81785202 348.36973888 176.81785202 349.04973888 176.81785202 C352.55635267 183.53886178 353.30286843 189.74518101 351.04973888 197.06785202 C347.737136 201.62268099 343.40897895 205.03143867 338.04973888 206.81785202 C332.06615857 207.64398737 327.8117708 206.86377436 322.84661388 203.38816452 C319.9252082 200.83510998 318.05578385 198.140364 316.04973888 194.81785202 C316.04973888 194.15785202 316.04973888 193.49785202 316.04973888 192.81785202 C315.38973888 192.81785202 314.72973888 192.81785202 314.04973888 192.81785202 C312.93645763 191.27878952 312.93645763 191.27878952 311.73723888 189.19285202 C310.07422556 186.40136537 308.37196982 183.89294093 306.23723888 181.44285202 C304.04973888 178.81785202 304.04973888 178.81785202 304.04973888 176.81785202 C303.18348888 176.44660202 303.18348888 176.44660202 302.29973888 176.06785202 C299.72033909 174.63485214 297.98852296 173.03360526 296.04973888 170.81785202 C296.04973888 170.15785202 296.04973888 169.49785202 296.04973888 168.81785202 C294.96692638 168.47753952 294.96692638 168.47753952 293.86223888 168.13035202 C290.50648173 166.56433202 288.65791751 164.42603065 286.04973888 161.81785202 C282.88328414 160.02464378 282.88328414 160.02464378 280.04973888 158.81785202 C280.04973888 158.15785202 280.04973888 157.49785202 280.04973888 156.81785202 C279.40134045 156.57679733 278.75294201 156.33574265 278.08489513 156.08738327 C275.68374511 155.08304124 273.42028457 154.01363486 271.10833263 152.82957077 C244.11436532 139.15160718 213.33547069 135.22377735 184.04973888 143.81785202 C182.93341076 144.09500046 181.81708263 144.3721489 180.66692638 144.65769577 C169.38552097 147.6651466 158.01002858 153.28860678 149.04973888 160.81785202 C148.24536388 161.29222702 147.44098888 161.76660202 146.61223888 162.25535202 C144.46556328 163.56430056 142.75128238 164.87307172 140.86223888 166.50535202 C138.04973888 168.81785202 138.04973888 168.81785202 136.04973888 168.81785202 C135.80223888 169.39535202 135.55473888 169.97285202 135.29973888 170.56785202 C133.866739 173.14725181 132.26549212 174.87906794 130.04973888 176.81785202 C129.38973888 176.81785202 128.72973888 176.81785202 128.04973888 176.81785202 C127.84348888 177.49847702 127.63723888 178.17910202 127.42473888 178.88035202 C125.99775053 181.92891804 124.1966884 184.04038581 121.95208263 186.52097702 C120.40517873 188.38869673 119.03997562 190.23971422 117.67864513 192.23972702 C117.25583263 192.85726852 116.83302013 193.47481003 116.39739513 194.11106491 C115.5587977 195.34713587 114.73137476 196.59088393 113.91692638 197.8429985 C110.51957926 202.8187652 106.74609387 206.1199802 100.60833263 207.27878952 C94.64263075 207.03708521 90.10095067 206.53514561 85.36223888 202.56785202 C80.90056117 197.26207312 79.55879543 193.13805318 79.74505138 186.29832077 C80.18805146 182.6918458 81.37468968 180.02836299 83.04973888 176.81785202 C83.70973888 176.81785202 84.36973888 176.81785202 85.04973888 176.81785202 C85.31786388 176.09597702 85.58598888 175.37410202 85.86223888 174.63035202 C88.45398418 168.49200789 92.4871312 163.58936888 96.64153576 158.45847702 C99.43358206 155.06439035 99.43358206 155.06439035 100.04973888 150.81785202 C97.2360774 147.01113355 94.35654163 144.1793889 90.64348888 141.22410202 C88.79706888 139.5949079 87.26505924 137.82232153 85.67473888 135.94285202 C82.66559515 132.40777387 79.42268091 129.4064834 75.89348888 126.39988327 C72.29688202 123.3138117 69.14111728 119.94937547 66.11223888 116.31785202 C63.34915832 113.04466427 60.37829976 110.5090289 57.04973888 107.81785202 C54.36252913 105.26172567 51.95225424 102.69787092 49.61223888 99.81785202 C46.98222657 96.73881321 44.18723548 94.36706801 41.04973888 91.81785202 C38.36252913 89.26172567 35.95225424 86.69787092 33.61223888 83.81785202 C30.98222657 80.73881321 28.18723548 78.36706801 25.04973888 75.81785202 C22.36252913 73.26172567 19.95225424 70.69787092 17.61223888 67.81785202 C14.98222657 64.73881321 12.18723548 62.36706801 9.04973888 59.81785202 C7.36311431 58.17138517 5.69462182 56.50602135 4.04973888 54.81785202 C3.28661388 54.09597702 2.52348888 53.37410202 1.73723888 52.63035202 C0.04973888 50.81785202 0.04973888 50.81785202 0.04973888 48.81785202 C-0.52776112 48.57035202 -1.10526112 48.32285202 -1.70026112 48.06785202 C-4.27966091 46.63485214 -6.01147704 45.03360526 -7.95026112 42.81785202 C-7.95026112 42.15785202 -7.95026112 41.49785202 -7.95026112 40.81785202 C-8.52776112 40.57035202 -9.10526112 40.32285202 -9.70026112 40.06785202 C-12.27966091 38.63485214 -14.01147704 37.03360526 -15.95026112 34.81785202 C-15.95026112 34.15785202 -15.95026112 33.49785202 -15.95026112 32.81785202 C-16.61026112 32.81785202 -17.27026112 32.81785202 -17.95026112 32.81785202 C-19.20416737 31.39207077 -19.20416737 31.39207077 -20.51276112 29.50535202 C-20.94717518 28.89046921 -21.38158924 28.2755864 -21.82916737 27.64207077 C-24.51954921 23.26434144 -24.39467411 18.78331256 -23.95026112 13.81785202 C-20.48892813 3.00118645 -11.04281643 -1.7602954 0 0 Z " fill="#111219" transform="translate(295.95026111602783,-0.8178520202636719)"/>
<path d="M0 0 C11.12821915 8.95849438 18.36512715 20.96141798 19.94140625 35.25024414 C20.91657853 49.47537624 18.80342893 62.64955811 9.70068359 74.06811523 C9.26111328 74.66881836 8.82154297 75.26952148 8.36865234 75.88842773 C0.56993868 85.91213464 -10.84687856 92.10767312 -23.29931641 94.06811523 C-37.97912125 95.0008945 -52.65001902 93.19570403 -64.48681641 83.63061523 C-65.41494141 82.78499023 -66.34306641 81.93936523 -67.29931641 81.06811523 C-68.10369141 80.34624023 -68.90806641 79.62436523 -69.73681641 78.88061523 C-79.74183266 67.89949984 -84.79263495 55.32114344 -84.56884766 40.38842773 C-83.56269688 27.99381671 -80.27988801 17.8086608 -72.29931641 8.06811523 C-71.76564453 7.40553711 -71.23197266 6.74295898 -70.68212891 6.06030273 C-53.05476617 -13.49642308 -20.73264032 -15.60048125 0 0 Z M-46.29931641 33.06811523 C-49.07510584 37.45794197 -49.06605693 42.03396031 -48.29931641 47.06811523 C-46.28366878 51.38850736 -43.30800816 54.51312489 -39.29931641 57.06811523 C-33.8422494 58.40986933 -28.3380131 58.75542014 -23.29931641 56.06811523 C-20.2578831 54.10450147 -18.14840105 52.20260344 -16.29931641 49.06811523 C-15.19585971 43.81513275 -14.96497568 38.64023256 -17.48681641 33.77905273 C-18.96984014 31.96389347 -20.4704548 30.52857306 -22.29931641 29.06811523 C-23.04181641 28.42874023 -23.78431641 27.78936523 -24.54931641 27.13061523 C-33.4324285 23.69850374 -39.94240629 26.32759848 -46.29931641 33.06811523 Z " fill="#111219" transform="translate(936.29931640625,486.931884765625)"/>
<path d="M0 0 C11.82223977 9.64212659 19.22601529 21.13704663 20.84179688 36.35009766 C21.74487563 49.59620532 20.20614963 63.42133131 11.60546875 74.125 C10.60928793 75.12880465 9.60946604 76.12901333 8.60546875 77.125 C7.96609375 77.99125 7.32671875 78.8575 6.66796875 79.75 C4.45959929 82.2929709 3.73208074 82.47811476 0.60546875 83.125 C0.11046875 84.61 0.11046875 84.61 -0.39453125 86.125 C-11.78667315 93.53893362 -26.08556623 97.0099936 -39.4921875 94.55859375 C-42.49227847 93.83417229 -45.43983924 93.01556914 -48.39453125 92.125 C-49.10351562 91.93164062 -49.8125 91.73828125 -50.54296875 91.5390625 C-58.37854057 89.07645422 -66.05673366 83.2983874 -71.39453125 77.125 C-71.39453125 76.135 -71.39453125 75.145 -71.39453125 74.125 C-72.38453125 73.795 -73.37453125 73.465 -74.39453125 73.125 C-81.91785423 64.54657685 -83.87447831 50.97085964 -83.6640625 39.93359375 C-82.50439649 27.84953782 -79.51285552 18.39228636 -71.39453125 9.125 C-70.61980469 8.13242187 -69.84507812 7.13984375 -69.046875 6.1171875 C-52.04706541 -13.06080094 -20.44537088 -14.01278004 0 0 Z M-39.39453125 28.125 C-39.39453125 28.785 -39.39453125 29.445 -39.39453125 30.125 C-40.26078125 30.434375 -40.26078125 30.434375 -41.14453125 30.75 C-44.40924334 32.74510184 -45.65867747 34.71528722 -47.39453125 38.125 C-48.0686351 42.33259325 -47.91945778 45.87100884 -46.26953125 49.8125 C-45.65078125 50.575625 -45.03203125 51.33875 -44.39453125 52.125 C-44.05035156 52.66382813 -43.70617187 53.20265625 -43.3515625 53.7578125 C-40.91500991 56.981559 -39.13800958 57.99976403 -35.1015625 58.6796875 C-27.42240048 59.0673016 -27.42240048 59.0673016 -20.70703125 55.875 C-19.94390625 54.9675 -19.18078125 54.06 -18.39453125 53.125 C-17.59402344 52.24908203 -17.59402344 52.24908203 -16.77734375 51.35546875 C-14.92496883 48.36759848 -14.96107197 46.18271894 -14.95703125 42.6875 C-14.93769531 41.57503906 -14.91835938 40.46257812 -14.8984375 39.31640625 C-15.61229094 34.72413646 -17.79578232 32.46003776 -21.2890625 29.54296875 C-27.52987173 25.53919093 -32.49802411 24.78123896 -39.39453125 28.125 Z " fill="#111219" transform="translate(935.39453125,349.875)"/>
<path d="M0 0 C1.52512207 0.00737183 1.52512207 0.00737183 3.08105469 0.01489258 C28.92824494 0.40271976 59.37691978 4.24768327 78.703125 23.15234375 C83.20721738 28.05542069 86.32828381 33.07088436 88.6875 39.3125 C89.05617188 40.14910156 89.42484375 40.98570312 89.8046875 41.84765625 C97.43321453 60.58729875 103.02106625 88.31131212 99.0625 108.5 C96.83276143 113.06082889 94.45400159 117.86637417 89.796875 120.30078125 C84.91933869 121.71219432 80.62315296 121.26778767 75.6875 120.3125 C74.65625 120.1475 73.625 119.9825 72.5625 119.8125 C68.14524734 117.50784644 65.89467709 113.70528568 63.6875 109.3125 C62.74437872 105.4709754 62.47748091 101.73409477 62.29296875 97.7890625 C61.45008283 78.22212703 61.45008283 78.22212703 56.6875 59.3125 C56.37425781 58.28382813 56.06101562 57.25515625 55.73828125 56.1953125 C53.62477763 50.27121686 51.38510916 47.64765811 45.75 44.75 C43.75261195 43.88145836 41.73063369 43.067171 39.6875 42.3125 C38.80707031 41.96445312 37.92664063 41.61640625 37.01953125 41.2578125 C32.17973805 39.88474104 27.3005511 39.34233107 22.3125 38.75 C21.24773438 38.61851562 20.18296875 38.48703125 19.0859375 38.3515625 C12.9530364 37.61828085 6.85655835 37.08646354 0.6875 36.8125 C-6.43985918 36.42843505 -11.31938294 35.57396622 -17.125 31.1875 C-20.53063175 26.71152684 -22.37954727 22.44935421 -22.2578125 16.75390625 C-21.34758508 10.65166735 -19.05156482 6.30329143 -14.3125 2.3125 C-9.67479158 -0.41618805 -5.25321584 -0.02997617 0 0 Z " fill="#111219" transform="translate(618.3125,408.6875)"/>
<path d="M0 0 C5.6903442 3.83479718 9.22408516 8.2197221 10.875 14.9375 C11.17957722 18.5663725 11.19968218 22.17246503 11.1875 25.8125 C11.20361328 26.76769531 11.21972656 27.72289062 11.23632812 28.70703125 C11.24102235 35.55121516 10.54873891 41.26376855 6.40234375 46.9609375 C1.67731568 50.97779183 -2.88640163 52.78487374 -9.125 52.9375 C-15.20924861 52.15495999 -19.04438764 49.7006259 -22.93359375 45.046875 C-26.33758969 39.02012808 -26.46285059 32.78547694 -26.4375 26.0625 C-26.45361328 25.21558594 -26.46972656 24.36867188 -26.48632812 23.49609375 C-26.49145065 16.80608025 -25.69035513 10.23841905 -21.4765625 4.81640625 C-14.65280756 -0.38632093 -8.52078659 -2.89706744 0 0 Z " fill="#111219" transform="translate(707.125,563.0625)"/>
</svg>
